# xmcd
#
# Track frame offsets:
#	150
#	19595
#	36613
#	47467
#	61898
#	81203
#	93864
#	109020
#	122700
#	134398
#	146528
#	160520
#	175141
#	194168
#	205273
#	222109
#	233580
#
# Disc length: 3289 seconds
#
# Revision: 0
# Processed by: cddbd v1.5.1PL2 Copyright (c) Steve Scherf et al.
# Submitted via: dBpowerAMP V4.0
#
DISCID=e60cd711
DTITLE=Demonstrators - Songwriter's Choice
DYEAR=2005
DGENRE=Blues
TTITLE0=Ace of Harps
TTITLE1=New Orleans Callin'
TTITLE2=Road Rage Anthem
TTITLE3=It Ain't About Losin'
TTITLE4=If You Cook The Way You Walk
TTITLE5=Only Dead Presidents Vote
TTITLE6=Blues Mama
TTITLE7=Blues Refugee
TTITLE8=Hostage America
TTITLE9=Nobody Loves Me But MP3.com
TTITLE10=Rounders and Hustlers
TTITLE11=Source of Light
TTITLE12=The Stalker
TTITLE13=Come Back Casey Jones
TTITLE14=Dock Your Dinghy
TTITLE15=Hillbilly Music
TTITLE16=Big and Black and Blue
EXTD=
EXTT0=
EXTT1=
EXTT2=
EXTT3=
EXTT4=
EXTT5=
EXTT6=
EXTT7=
EXTT8=
EXTT9=
EXTT10=
EXTT11=
EXTT12=
EXTT13=
EXTT14=
EXTT15=
EXTT16=
PLAYORDER=
